<svg width="40" height="40" viewBox="0 0 40 40" fill="none" xmlns="http://www.w3.org/2000/svg">
<path d="M35.8329 30.0003L24.7616 20.0003M15.2378 20.0003L4.1664 30.0003M3.33301 11.667L16.9412 21.1927C18.0432 21.9641 18.5941 22.3498 19.1934 22.4992C19.7228 22.6311 20.2765 22.6311 20.8059 22.4992C21.4052 22.3498 21.9562 21.9641 23.0581 21.1927L36.6663 11.667M11.333 33.3337H28.6663C31.4666 33.3337 32.8667 33.3337 33.9363 32.7887C34.8771 32.3093 35.642 31.5444 36.1214 30.6036C36.6663 29.5341 36.6663 28.1339 36.6663 25.3337V14.667C36.6663 11.8667 36.6663 10.4666 36.1214 9.39704C35.642 8.45623 34.8771 7.69133 33.9363 7.21196C32.8667 6.66699 31.4666 6.66699 28.6663 6.66699H11.333C8.53275 6.66699 7.13261 6.66699 6.06306 7.21196C5.12224 7.69133 4.35734 8.45623 3.87798 9.39704C3.33301 10.4666 3.33301 11.8667 3.33301 14.667V25.3337C3.33301 28.1339 3.33301 29.5341 3.87798 30.6036C4.35734 31.5444 5.12224 32.3093 6.06306 32.7887C7.13261 33.3337 8.53275 33.3337 11.333 33.3337Z" stroke="black" stroke-width="2" stroke-linecap="round" stroke-linejoin="round"/>
</svg>
