<svg xmlns="http://www.w3.org/2000/svg" xmlns:xlink="http://www.w3.org/1999/xlink" viewBox="0 0 110 112" width="110" height="112" preserveAspectRatio="xMidYMid meet" style="width: 100%; height: 100%; transform: translate3d(0px, 0px, 0px); content-visibility: visible;"><defs><clipPath id="__lottie_element_37"><rect width="110" height="112" x="0" y="0"></rect></clipPath></defs><g clip-path="url(#__lottie_element_37)"><g transform="matrix(1,0,0,1,55,56)" opacity="1" style="display: block;"><g opacity="1" transform="matrix(1,0,0,1,-11.789999961853027,12.395000457763672)"><path stroke-linecap="butt" stroke-linejoin="miter" fill-opacity="0" stroke-miterlimit="4" stroke="rgb(0,0,0)" stroke-opacity="0.6900000000000001" stroke-width="3" d=" M42.959999084472656,42.17100143432617 C42.959999084472656,42.64400100708008 42.959999084472656,42.89500045776367 42.959999084472656,42.89500045776367 C42.959999084472656,42.894500732421875 -42.959999084472656,42.894500732421875 -42.959999084472656,42.894500732421875 C-42.959999084472656,42.894500732421875 -42.959999084472656,-42.894500732421875 -42.959999084472656,-42.894500732421875 C-42.959999084472656,-42.894500732421875 42.959999084472656,-42.894500732421875 42.959999084472656,-42.894500732421875"></path></g></g><g transform="matrix(1,0,0,1,55,56)" opacity="1" style="display: block;"><g opacity="1" transform="matrix(1,0,0,1,10.902000427246094,-12.413000106811523)"><path stroke-linecap="butt" stroke-linejoin="miter" fill-opacity="0" stroke-miterlimit="4" stroke="rgb(0,0,0)" stroke-opacity="0.6900000000000001" stroke-width="3" d=" M-40.915000915527344,-42.58700180053711 C-30.50200080871582,-42.58700180053711 42.152000427246094,-42.58700180053711 42.152000427246094,-42.58700180053711 C42.152000427246094,-42.58700180053711 42.152000427246094,42.58700180053711 42.152000427246094,42.58700180053711 C42.152000427246094,42.58700180053711 -42.152000427246094,42.58700180053711 -42.152000427246094,42.58700180053711 C-42.152000427246094,42.58700180053711 -42.152000427246094,13.163000106811523 -42.152000427246094,13.163000106811523 C-42.152000427246094,13.163000106811523 -18.652000427246094,13.163000106811523 -18.652000427246094,13.163000106811523"></path></g><g opacity="1" transform="matrix(1,0,0,1,0,0)"><path stroke-linecap="butt" stroke-linejoin="miter" fill-opacity="0" stroke-miterlimit="4" stroke="rgb(0,0,0)" stroke-opacity="0.6900000000000001" stroke-width="3" d="M0 0"></path></g></g><g transform="matrix(1,0,0,1,55,56)" opacity="1" style="display: block;"><g opacity="1" transform="matrix(1,0,0,1,1.63100004196167,0.7369999885559082)"><path fill="rgb(0,0,0)" fill-opacity="1" d=" M0,-4.011000156402588 C2.2136709690093994,-4.011000156402588 4.011000156402588,-2.2136709690093994 4.011000156402588,0 C4.011000156402588,2.2136709690093994 2.2136709690093994,4.011000156402588 0,4.011000156402588 C-2.2136709690093994,4.011000156402588 -4.011000156402588,2.2136709690093994 -4.011000156402588,0 C-4.011000156402588,-2.2136709690093994 -2.2136709690093994,-4.011000156402588 0,-4.011000156402588z"></path><path stroke-linecap="butt" stroke-linejoin="miter" fill-opacity="0" stroke-miterlimit="4" stroke="rgb(0,0,0)" stroke-opacity="0.6900000000000001" stroke-width="3" d=" M0,-4.011000156402588 C2.2136709690093994,-4.011000156402588 4.011000156402588,-2.2136709690093994 4.011000156402588,0 C4.011000156402588,2.2136709690093994 2.2136709690093994,4.011000156402588 0,4.011000156402588 C-2.2136709690093994,4.011000156402588 -4.011000156402588,2.2136709690093994 -4.011000156402588,0 C-4.011000156402588,-2.2136709690093994 -2.2136709690093994,-4.011000156402588 0,-4.011000156402588z"></path></g></g></g></svg>